<?xml version="1.0" encoding="utf-8"?>
<!-- Generator: Adobe Illustrator 26.0.0, SVG Export Plug-In . SVG Version: 6.00 Build 0)  -->
<svg version="1.1" id="Layer_1" xmlns="http://www.w3.org/2000/svg" xmlns:xlink="http://www.w3.org/1999/xlink" x="0px" y="0px"
	 viewBox="0 0 650 200" style="enable-background:new 0 0 650 200;" xml:space="preserve">
<style type="text/css">
	.st0{fill:#FFB600;}
	.st1{fill:#FF0D7C;}
	.st2{fill:#2E2E6D;}
	.st3{fill:#D2DD26;}
	.st4{fill:#656867;}
</style>
<g>
	<g>
		<path class="st0" d="M337,65h-20v70h20c19.4,0,35-15.7,35-35S356.4,65,337,65z"/>
		<path class="st1" d="M317,65h-20v70h20c19.4,0,35-15.7,35-35S336.4,65,317,65z"/>
		<circle class="st2" cx="297" cy="100" r="35"/>
		<path class="st2" d="M633,95h-10c-2.8,0-5-2.2-5-5s2.2-5,5-5h15h10c0-5.5-4.5-10-10-10h-15c-7.9,0-14.4,6.1-15,13.9
			c-2.6-8.1-10.1-13.9-19-13.9c-6,0-11.3,2.6-15,6.8c-3.7-4.2-9-6.8-15-6.8c-8.8,0-16.4,5.8-19,13.8V85V75c-4,0-7.5,2.3-9,5.8
			c-4.3-3.6-9.9-5.8-16-5.8c-12.1,0-22.2,8.6-24.5,20c-2.3-11.4-12.4-20-24.5-20s-22.2,8.6-24.5,20c-2.3-11.4-12.4-20-24.5-20
			c-5.6,0-10.8,1.8-15,5v-5c0-5.5-4.5-10-10-10v10v25v15v10c4,0,7.5-2.3,9-5.8c4.4,3.6,9.9,5.8,16,5.8c12.1,0,22.2-8.6,24.5-20
			c2.3,11.4,12.4,20,24.5,20h10c0-5.5-4.5-10-10-10c-6.5,0-12.1-4.2-14.1-10h28.3h5.3h5l0,0c2.3,11.4,12.4,20,24.5,20
			c6,0,11.7-2.2,16-5.8c1.6,3.4,5,5.8,9,5.8h9V95c0-5.5,4.5-10,10-10s10,4.5,10,10v20c0,5.5,4.5,10,10,10v-10V95c0-5.5,4.5-10,10-10
			s10,4.5,10,10v20c0,5.5,4.5,10,10,10h24c8.3,0,15-6.7,15-15S641.3,95,633,95z M417,115c-8.3,0-15-6.7-15-15s6.7-15,15-15
			s15,6.7,15,15S425.3,115,417,115z M451.9,95c2.1-5.8,7.6-10,14.1-10s12.1,4.2,14.1,10H451.9z M515,115c-8.3,0-15-6.7-15-15
			s6.7-15,15-15s15,6.7,15,15S523.3,115,515,115z M633,115h-24V95.4c2.2,5.6,7.6,9.6,14,9.6h10c2.8,0,5,2.2,5,5S635.8,115,633,115z"
			/>
	</g>
	<g>
		<rect x="2" y="30" class="st3" width="200" height="140"/>
		<g>
			<path class="st4" d="M34.5,133.6c-0.3-1.2-1-3.6-4.6-3.6c-2.1,0-5.2,1.5-5.2,7.2c0,3.6,1.6,7,5.2,7c2.4,0,4-1.4,4.6-3.9h4.3
				c-0.9,4.4-3.8,7.5-8.9,7.5c-5.5,0-9.4-3.7-9.4-10.6c0-7.1,4.1-10.7,9.4-10.7c6.2,0,8.6,4.2,8.9,7.2H34.5L34.5,133.6z"/>
			<path class="st4" d="M44,137.9l5-5.7h4.9l-5.4,5.8l5.5,9.2h-4.8l-3.6-6.5l-1.7,1.7v4.8h-4v-15h4V137.9z"/>
			<path class="st4" d="M68.7,139.7c0,5.4-3.7,7.9-7.8,7.9c-4.1,0-7.8-2.5-7.8-7.9c0-5.4,3.7-7.9,7.8-7.9
				C65,131.8,68.7,134.3,68.7,139.7z M57.2,139.7c0,1.9,0.6,4.6,3.7,4.6c3.1,0,3.7-2.6,3.7-4.6c0-1.9-0.6-4.6-3.7-4.6
				C57.8,135.1,57.2,137.7,57.2,139.7z"/>
			<path class="st4" d="M83.7,132.2v15h-4v-11.9h-4.3v4.6c0,5.7-1.8,7.6-4.6,7.6c-0.7,0-1.8-0.1-2.4-0.3v-2.9
				c0.1,0.1,0.6,0.1,1.2,0.1c1.2,0,1.8-0.6,1.8-5.2v-7L83.7,132.2L83.7,132.2z"/>
			<path class="st4" d="M89.7,137.9l5-5.7h4.9l-5.3,5.8l5.5,9.2H95l-3.6-6.5l-1.7,1.7v4.8h-4v-15h4V137.9z"/>
			<path class="st4" d="M114.4,139.7c0,5.4-3.7,7.9-7.8,7.9c-4.1,0-7.8-2.5-7.8-7.9c0-5.4,3.7-7.9,7.8-7.9
				C110.7,131.8,114.4,134.3,114.4,139.7z M103,139.7c0,1.9,0.6,4.6,3.7,4.6c3.1,0,3.7-2.6,3.7-4.6c0-1.9-0.6-4.6-3.7-4.6
				C103.6,135.1,103,137.7,103,139.7z"/>
			<path class="st4" d="M115.7,132.2h6.9c3.4,0,5.9,1.4,5.9,3.9c0,1.7-1.2,2.8-2.8,3.2c1.6,0.4,3.3,1.3,3.3,3.8
				c0,2.8-2.1,4.1-5.6,4.1h-7.6V132.2L115.7,132.2z M119.7,138.3h2.6c1.3,0,2.3-0.5,2.3-1.7c0-1.2-0.9-1.7-2.2-1.7h-2.6V138.3z
				 M119.7,144.5h2.9c1.5,0,2.4-0.4,2.4-1.9c0-1.3-1-1.9-2.4-1.9h-2.9V144.5z"/>
			<path class="st4" d="M144.9,139.7c0,5.4-3.7,7.9-7.8,7.9c-4.1,0-7.8-2.5-7.8-7.9c0-5.4,3.7-7.9,7.8-7.9
				C141.2,131.8,144.9,134.3,144.9,139.7z M133.5,139.7c0,1.9,0.6,4.6,3.7,4.6c3.1,0,3.7-2.6,3.7-4.6c0-1.9-0.6-4.6-3.7-4.6
				C134.1,135.1,133.5,137.7,133.5,139.7z"/>
		</g>
		<path class="st4" d="M49.5,123c3.4,0,11.8-0.6,18-5.1v3.4h12.7v-15l5.3-5.4L97,121.3h15.2L94.7,92.1l16.9-18.4H96.1l-16,18.1V57.1
			H67.5v5.5c-3.9-4.1-10.1-7.2-19.8-7.2c-21.1,0-25,12.6-25,19.7c0,9.7,5.3,15.1,14.5,17.3l13.1,3.2c6.9,1.7,11.8,2.9,11.8,8
			c0,6.7-7.2,8.3-13.6,8.3c-11.8,0-13.8-6.8-13.8-10.4h-13C21.7,109.5,25.8,123,49.5,123z M58.1,84.7l-15.9-3.8
			c-2.7-0.6-6.9-1.7-6.9-6.7c0-5.7,6.2-7.7,11.4-7.7c11.8,0,12.9,6.8,13.3,9.7h7.6v12C64.8,86.6,61.5,85.6,58.1,84.7z"/>
	</g>
</g>
</svg>
