<?xml version="1.0" encoding="utf-8"?>
<!-- Generator: Adobe Illustrator 22.1.0, SVG Export Plug-In . SVG Version: 6.00 Build 0)  -->
<svg version="1.0" id="Layer_1" xmlns="http://www.w3.org/2000/svg" xmlns:xlink="http://www.w3.org/1999/xlink" x="0px" y="0px"
	 width="772px" height="140px" viewBox="0 0 772 140" style="enable-background:new 0 0 772 140;" xml:space="preserve">
<style type="text/css">
	.st0{fill:#FFB600;}
	.st1{fill:#FF0D7C;}
	.st2{fill:#2E2E6D;}
</style>
<g>
	<path class="st0" d="M150,0h-40v140h40c38.7,0,70-31.3,70-70S188.7,0,150,0z"/>
	<path class="st1" d="M110,0H70v140h40c38.7,0,70-31.3,70-70S148.7,0,110,0z"/>
	<circle class="st2" cx="70" cy="70" r="70"/>
	<path class="st2" d="M742,60h-20c-5.5,0-10-4.5-10-10c0-5.5,4.5-10,10-10h30h20c0-11-9-20-20-20h-30c-15.8,0-28.8,12.2-29.9,27.8
		C686.9,31.7,671.8,20,654,20c-12,0-22.7,5.2-30,13.6c-7.3-8.3-18-13.6-30-13.6c-17.7,0-32.8,11.5-38,27.5V40V20
		c-8,0-14.9,4.7-18.1,11.5C529.3,24.3,518.1,20,506,20c-24.2,0-44.4,17.2-49,40c-4.6-22.8-24.8-40-49-40s-44.4,17.2-49,40
		c-4.6-22.8-24.8-40-49-40c-11.3,0-21.6,3.7-30,10V20c0-11-9-20-20-20v20v50v30v20c8,0,14.9-4.7,18.1-11.5
		c8.7,7.2,19.8,11.5,31.9,11.5c24.2,0,44.4-17.2,49-40c4.6,22.8,24.8,40,49,40h20c0-11-9-20-20-20c-13.1,0-24.2-8.3-28.3-20h56.6
		H447h10c0,0,0,0,0,0c4.6,22.8,24.8,40,49,40c12.1,0,23.3-4.3,31.9-11.5c3.2,6.8,10.1,11.5,18.1,11.5h18V60c0-11,9-20,20-20
		s20,9,20,20v40c0,11,9,20,20,20v-20V60c0-11,9-20,20-20s20,9,20,20v40c0,11,9,20,20,20h48c16.6,0,30-13.4,30-30S758.6,60,742,60z
		 M310,100c-16.6,0-30-13.4-30-30s13.4-30,30-30s30,13.4,30,30S326.6,100,310,100z M379.7,60c4.1-11.7,15.2-20,28.3-20
		s24.2,8.3,28.3,20H379.7z M506,100c-16.6,0-30-13.4-30-30s13.4-30,30-30s30,13.4,30,30S522.6,100,506,100z M742,100h-48V60.8
		C698.3,72,709.2,80,722,80h20c5.5,0,10,4.5,10,10C752,95.5,747.5,100,742,100z"/>
</g>
</svg>
