<?xml version="1.0" encoding="utf-8"?>
<!-- Generator: Adobe Illustrator 22.1.0, SVG Export Plug-In . SVG Version: 6.00 Build 0)  -->
<svg version="1.0" id="Layer_1" xmlns="http://www.w3.org/2000/svg" xmlns:xlink="http://www.w3.org/1999/xlink" x="0px" y="0px"
	 width="200px" height="200px" viewBox="0 0 200 200" style="enable-background:new 0 0 200 200;" xml:space="preserve">
<style type="text/css">
	.st0{fill:#EAEAF0;}
</style>
<g>
	<path class="st0" d="M95.2,127c0,11.2-3.9,20.8-11.6,28.7c-7.7,7.9-17.2,11.8-28.5,11.8c-13.5,0-24.4-4.7-32.7-14.1
		C14.1,143.9,10,131.5,10,116c0-15.2,1.9-28.1,5.7-38.8c3.8-10.7,9.2-19.2,16.2-25.7c7-6.5,15.7-11.2,25.9-14.3
		c10.3-3.1,22-4.6,35.2-4.6v25.3c-8.4,0-15.6,1-21.5,3c-5.9,2-10.7,4.5-14.3,7.6c-3.9,3.1-6.9,6.5-8.9,10.3c-2,3.8-3.2,7.7-3.8,11.6
		c0.6-0.6,1.9-1.2,4-1.9c2.1-0.7,4.3-1.1,6.5-1.1c12.4,0,22.1,3.9,29.3,11.6C91.6,106.7,95.2,116,95.2,127z M190,127
		c0,11.2-3.9,20.8-11.6,28.7c-7.7,7.9-17.2,11.8-28.5,11.8c-13.5,0-24.4-4.7-32.7-14.1c-8.3-9.4-12.4-21.8-12.4-37.3
		c0-15.2,1.8-28.1,5.5-38.8c3.6-10.7,9.1-19.2,16.2-25.7c7.2-6.5,15.9-11.2,26.1-14.3c10.3-3.1,22-4.6,35.2-4.6v25.3
		c-8.4,0-15.6,1-21.5,3c-5.9,2-10.8,4.5-14.8,7.6c-3.9,3.1-6.8,6.5-8.6,10.3c-1.8,3.8-3,7.7-3.6,11.6c0.6-0.6,1.9-1.2,4-1.9
		c2.1-0.7,4.3-1.1,6.5-1.1c12.4,0,22.1,3.9,29.3,11.6C186.4,106.7,190,116,190,127z"/>
</g>
</svg>
