<?xml version="1.0" encoding="utf-8"?>
<!-- Generator: Adobe Illustrator 26.0.0, SVG Export Plug-In . SVG Version: 6.00 Build 0)  -->
<svg version="1.1" id="Layer_1" xmlns="http://www.w3.org/2000/svg" xmlns:xlink="http://www.w3.org/1999/xlink" x="0px" y="0px"
	 viewBox="0 0 100 70" style="enable-background:new 0 0 100 70;" xml:space="preserve">
<style type="text/css">
	.st0{fill:#D2DD26;}
	.st1{fill:#656867;}
</style>
<g>
	<rect class="st0" width="100" height="70"/>
	<g>
		<path class="st1" d="M16.2,51.8C16.1,51.2,15.7,50,14,50c-1,0-2.6,0.7-2.6,3.6c0,1.8,0.8,3.5,2.6,3.5c1.2,0,2-0.7,2.3-2h2.1
			c-0.4,2.2-1.9,3.7-4.5,3.7c-2.7,0-4.7-1.8-4.7-5.3c0-3.5,2.1-5.3,4.7-5.3c3.1,0,4.3,2.1,4.4,3.6H16.2L16.2,51.8z"/>
		<path class="st1" d="M21,53.9l2.5-2.8H26L23.3,54l2.7,4.6h-2.4l-1.8-3.2L21,56.2v2.4h-2v-7.5h2V53.9z"/>
		<path class="st1" d="M33.3,54.8c0,2.7-1.8,4-3.9,4c-2,0-3.9-1.2-3.9-4c0-2.7,1.9-3.9,3.9-3.9C31.5,50.9,33.3,52.1,33.3,54.8z
			 M27.6,54.8c0,1,0.3,2.3,1.8,2.3c1.5,0,1.8-1.3,1.8-2.3c0-1-0.3-2.3-1.8-2.3C27.9,52.6,27.6,53.9,27.6,54.8z"/>
		<path class="st1" d="M40.8,51.1v7.5h-2v-5.9h-2.1V55c0,2.9-0.9,3.8-2.3,3.8c-0.4,0-0.9-0.1-1.2-0.2v-1.5c0,0,0.3,0.1,0.6,0.1
			c0.6,0,0.9-0.3,0.9-2.6v-3.5L40.8,51.1L40.8,51.1z"/>
		<path class="st1" d="M43.9,53.9l2.5-2.8h2.4L46.2,54l2.7,4.6h-2.4l-1.8-3.2l-0.8,0.9v2.4h-2v-7.5h2V53.9z"/>
		<path class="st1" d="M56.2,54.8c0,2.7-1.8,4-3.9,4c-2,0-3.9-1.2-3.9-4c0-2.7,1.9-3.9,3.9-3.9C54.4,50.9,56.2,52.1,56.2,54.8z
			 M50.5,54.8c0,1,0.3,2.3,1.8,2.3c1.5,0,1.8-1.3,1.8-2.3c0-1-0.3-2.3-1.8-2.3C50.8,52.6,50.5,53.9,50.5,54.8z"/>
		<path class="st1" d="M56.9,51.1h3.4c1.7,0,2.9,0.7,2.9,1.9c0,0.9-0.6,1.4-1.4,1.6c0.8,0.2,1.6,0.7,1.6,1.9c0,1.4-1.1,2.1-2.8,2.1
			h-3.8V51.1L56.9,51.1z M58.8,54.1h1.3c0.7,0,1.1-0.3,1.1-0.9c0-0.6-0.4-0.8-1.1-0.8h-1.3V54.1z M58.8,57.2h1.5
			c0.7,0,1.2-0.2,1.2-1c0-0.7-0.5-1-1.2-1h-1.4V57.2z"/>
		<path class="st1" d="M71.5,54.8c0,2.7-1.8,4-3.9,4c-2,0-3.9-1.2-3.9-4c0-2.7,1.9-3.9,3.9-3.9C69.6,50.9,71.5,52.1,71.5,54.8z
			 M65.7,54.8c0,1,0.3,2.3,1.8,2.3c1.5,0,1.8-1.3,1.8-2.3c0-1-0.3-2.3-1.8-2.3C66,52.6,65.7,53.9,65.7,54.8z"/>
	</g>
	<path class="st1" d="M23.7,46.5c1.7,0,5.9-0.3,9-2.5v1.7h6.3v-7.5l2.6-2.7l5.7,10.2h7.6l-8.7-14.6l8.5-9.2h-7.8l-8,9V13.6h-6.3v2.7
		c-1.9-2-5.1-3.6-9.9-3.6c-10.5,0-12.5,6.3-12.5,9.9c0,4.9,2.6,7.6,7.3,8.7l6.5,1.6c3.5,0.8,5.9,1.5,5.9,4c0,3.4-3.6,4.2-6.8,4.2
		c-5.9,0-6.9-3.4-6.9-5.2H9.8C9.8,39.7,11.9,46.5,23.7,46.5z M28.1,27.4l-7.9-1.9c-1.3-0.3-3.5-0.8-3.5-3.4c0-2.9,3.1-3.9,5.7-3.9
		c5.9,0,6.5,3.4,6.6,4.9h3.8v6C31.4,28.3,29.7,27.8,28.1,27.4z"/>
</g>
</svg>
