<?xml version="1.0" encoding="utf-8"?>
<!-- Generator: Adobe Illustrator 22.1.0, SVG Export Plug-In . SVG Version: 6.00 Build 0)  -->
<svg version="1.0" id="Layer_1" xmlns="http://www.w3.org/2000/svg" xmlns:xlink="http://www.w3.org/1999/xlink" x="0px" y="0px"
	 width="30px" height="30px" viewBox="0 0 30 30" style="enable-background:new 0 0 30 30;" xml:space="preserve">
<style type="text/css">
	.st0{fill:#FFFFFF;}
</style>
<path class="st0" d="M20.8,8.2L6.6,13.8c0,0-0.6,0.2-0.6,0.6c0.1,0.4,0.6,0.6,0.6,0.6l3.6,1.2c0,0,1,3.5,1.3,4.2
	c0.2,0.6,0.4,0.7,0.4,0.7c0.2,0.1,0.4-0.1,0.4-0.1l2.3-2.1l0,0l3.6,2.8c1,0.4,1.4-0.5,1.4-0.5L22,8.5C22,7.7,20.8,8.2,20.8,8.2z
	 M19.1,11c-0.2,0.2-6.3,5.7-6.3,5.7l-0.6,3.4c0,0-0.2,0-0.4-0.6c-0.2-0.6-1.1-3.6-1.1-3.6l8.1-5.1c0,0,0.5-0.3,0.5,0
	C19.3,10.8,19.4,10.9,19.1,11z"/>
</svg>
