<?xml version="1.0" encoding="utf-8"?>
<!-- Generator: Adobe Illustrator 22.1.0, SVG Export Plug-In . SVG Version: 6.00 Build 0)  -->
<svg version="1.0" id="Layer_1" xmlns="http://www.w3.org/2000/svg" xmlns:xlink="http://www.w3.org/1999/xlink" x="0px" y="0px"
	 width="30px" height="30px" viewBox="0 0 30 30" style="enable-background:new 0 0 30 30;" xml:space="preserve">
<style type="text/css">
	.st0{fill:#FFFFFF;}
</style>
<g id="Lozenge">
	<g>
		<path class="st0" d="M22.4,11.9c0,0-0.1-1.1-0.6-1.5c-0.6-0.6-1.2-0.6-1.5-0.6c-2.1-0.1-5.3-0.1-5.3-0.1l0,0c0,0-3.2,0-5.3,0.1
			c-0.4,0-1.1,0-1.6,0.6c-0.4,0.5-0.6,1.5-0.6,1.5s-0.1,1.2-0.1,2.5v1.1c0,1.2,0.1,2.5,0.1,2.5s0.1,1.1,0.6,1.5
			c0.6,0.6,1.4,0.6,1.6,0.6c1.2,0.1,5.2,0.1,5.2,0.1s3.2,0,5.3-0.1c0.3,0,0.9-0.1,1.5-0.6c0.4-0.5,0.6-1.5,0.6-1.5s0.1-1.2,0.1-2.5
			v-1.1C22.6,13.1,22.4,11.9,22.4,11.9z M13.4,17v-4.4l4.1,2.1L13.4,17z"/>
	</g>
</g>
</svg>
