<?xml version="1.0" encoding="utf-8"?>
<!-- Generator: Adobe Illustrator 26.0.3, SVG Export Plug-In . SVG Version: 6.00 Build 0)  -->
<svg version="1.1" id="Layer_1" xmlns="http://www.w3.org/2000/svg" xmlns:xlink="http://www.w3.org/1999/xlink" x="0px" y="0px"
	 viewBox="0 0 180 80" style="enable-background:new 0 0 180 80;" xml:space="preserve">
<style type="text/css">
	.st0{fill:#FFFFFF;}
</style>
<g>
	<path class="st0" d="M100.3,26.5h9.4v12.3c-1.5,0.5-3,0.8-4.3,1s-2.7,0.3-4.1,0.3c-3.6,0-6.3-1.1-8.2-3.2s-2.8-5.1-2.8-9.1
		c0-3.8,1.1-6.8,3.3-9s5.2-3.2,9.1-3.2c2.4,0,4.8,0.5,7.1,1.5l-1.7,4c-1.7-0.9-3.5-1.3-5.4-1.3c-2.2,0-3.9,0.7-5.2,2.2
		c-1.3,1.5-2,3.4-2,5.9c0,2.6,0.5,4.6,1.6,5.9s2.6,2,4.6,2c1.1,0,2.1-0.1,3.2-0.3v-5h-4.5V26.5z"/>
	<g>
		<path class="st0" d="M135.1,27.7c0,3.9-1.1,6.9-3.3,9c-2.2,2.1-5.4,3.1-9.7,3.1h-6.7V16.1h7.5c3.9,0,6.9,1,9,3.1
			S135.1,24.1,135.1,27.7z M129.9,27.9c0-5.1-2.3-7.7-6.8-7.7h-2.7v15.5h2.2C127.5,35.7,129.9,33.1,129.9,27.9z"/>
		<path class="st0" d="M156.5,23.5c0,2.6-0.8,4.5-2.4,5.9c-1.6,1.4-3.9,2-6.8,2h-2.2v8.5h-5V16.1h7.6c2.9,0,5.1,0.6,6.6,1.9
			C155.7,19.2,156.5,21,156.5,23.5z M145.1,27.3h1.7c1.6,0,2.7-0.3,3.5-0.9c0.8-0.6,1.2-1.5,1.2-2.7c0-1.2-0.3-2.1-1-2.6
			c-0.6-0.6-1.7-0.8-3-0.8h-2.3V27.3z"/>
		<path class="st0" d="M166,30.7v9.1h-5V16.1h6.9c3.2,0,5.6,0.6,7.2,1.8c1.6,1.2,2.3,3,2.3,5.4c0,1.4-0.4,2.6-1.2,3.7
			c-0.8,1.1-1.9,1.9-3.3,2.6l7,10.4h-5.6l-5.7-9.1H166z M166,26.6h1.6c1.6,0,2.8-0.3,3.5-0.8c0.8-0.5,1.1-1.4,1.1-2.5
			c0-1.1-0.4-1.9-1.2-2.4s-2-0.7-3.6-0.7H166V26.6z"/>
		<g>
			<path class="st0" d="M92.9,56.6V64h-2.2V46.2h4.9c2.2,0,3.9,0.4,4.9,1.3c1.1,0.8,1.6,2.1,1.6,3.8c0,2.4-1.2,4-3.6,4.8l4.9,8h-2.6
				l-4.3-7.4H92.9z M92.9,54.7h2.7c1.4,0,2.5-0.3,3.2-0.9s1-1.4,1-2.5c0-1.1-0.3-1.9-1-2.5c-0.7-0.5-1.8-0.8-3.3-0.8h-2.6V54.7z"/>
			<path class="st0" d="M116.2,64h-10V46.2h10v2h-7.7v5.6h7.3v2h-7.3V62h7.7V64z"/>
			<path class="st0" d="M131.3,64l-2.1-5.5h-7.1L120,64h-2.3l7-17.9h2l7,17.9H131.3z M128.5,56.5l-2-5.4l-0.9-2.7
				c-0.2,1-0.5,1.9-0.8,2.7l-2,5.4H128.5z"/>
			<path class="st0" d="M150.4,54.9c0,2.9-0.8,5.2-2.4,6.8c-1.6,1.6-3.9,2.3-6.9,2.3h-5V46.2h5.5c2.8,0,4.9,0.8,6.5,2.3
				C149.6,50,150.4,52.1,150.4,54.9z M148,55c0-2.3-0.6-4-1.7-5.2c-1.1-1.2-2.8-1.8-5.1-1.8h-2.9v14h2.4C145.6,62.1,148,59.7,148,55
				z"/>
			<path class="st0" d="M158.9,54.9l4.7-8.8h2.4L160,57.1V64h-2.3v-6.8l-5.9-11h2.5L158.9,54.9z"/>
		</g>
	</g>
</g>
<g>
	<polygon class="st0" points="5,43 8.1,44.7 7.6,41.2 10.1,38.7 6.6,38.2 5,35.1 3.5,38.2 0,38.7 2.5,41.2 1.9,44.7 	"/>
	<polygon class="st0" points="35.2,73.2 38.4,74.9 37.8,71.4 40.3,68.9 36.8,68.4 35.2,65.3 33.7,68.4 30.2,68.9 32.7,71.4 
		32.1,74.9 	"/>
	<polygon class="st0" points="35.2,12.8 38.4,14.4 37.8,11 40.3,8.5 36.8,8 35.2,4.9 33.7,8 30.2,8.5 32.7,11 32.1,14.4 	"/>
	<polygon class="st0" points="65.5,43 68.6,44.7 68,41.2 70.5,38.7 67,38.2 65.5,35.1 63.9,38.2 60.4,38.7 62.9,41.2 62.3,44.7 	"/>
	<path class="st0" d="M46,35.6l-1.8-1.8c-0.5-0.5-1.3-0.5-1.8,0l-7.9,7.9l-4.4-4.4c-0.5-0.5-1.3-0.5-1.8,0l-1.8,1.8
		c-0.5,0.5-0.5,1.3,0,1.8l7.1,7.1c0.5,0.5,1.3,0.5,1.8,0L46,37.3C46.4,36.9,46.4,36.1,46,35.6z"/>
	<polygon class="st0" points="10.7,57.7 14.2,57.6 11.9,54.9 12.9,51.5 9.6,52.8 6.7,50.8 6.9,54.3 4.2,56.5 7.6,57.4 8.8,60.7 	"/>
	<polygon class="st0" points="51.9,68.8 55.4,68.6 53.2,65.9 54.1,62.5 50.9,63.8 48,61.9 48.2,65.4 45.4,67.6 48.8,68.4 50.1,71.7 
			"/>
	<polygon class="st0" points="21.7,16.4 25.2,16.3 23,13.6 23.9,10.2 20.7,11.5 17.7,9.6 18,13.1 15.2,15.2 18.6,16.1 19.8,19.4 	
		"/>
	<polygon class="st0" points="63,27.5 66.5,27.3 64.3,24.6 65.2,21.3 61.9,22.6 59,20.6 59.2,24.1 56.5,26.3 59.9,27.2 61.1,30.5 	
		"/>
	<polygon class="st0" points="22.5,67.7 25.5,65.9 22.2,64.7 21.3,61.2 19.1,64 15.6,63.8 17.6,66.7 16.3,70 19.7,69 22.4,71.3 	"/>
	<polygon class="st0" points="63.8,56.7 66.7,54.8 63.4,53.6 62.6,50.2 60.4,52.9 56.9,52.7 58.8,55.6 57.5,58.9 60.9,58 63.6,60.2 
			"/>
	<polygon class="st0" points="11.4,26.5 14.4,24.6 11.1,23.4 10.2,20 8.1,22.7 4.6,22.5 6.5,25.4 5.2,28.7 8.6,27.7 11.3,30 	"/>
	<polygon class="st0" points="52.7,15.4 55.7,13.5 52.4,12.3 51.5,8.9 49.3,11.7 45.8,11.5 47.8,14.4 46.5,17.6 49.9,16.7 
		52.6,18.9 	"/>
</g>
</svg>
