<?xml version="1.0" encoding="utf-8"?>
<!-- Generator: Adobe Illustrator 26.0.3, SVG Export Plug-In . SVG Version: 6.00 Build 0)  -->
<svg version="1.1" id="Layer_1" xmlns="http://www.w3.org/2000/svg" xmlns:xlink="http://www.w3.org/1999/xlink" x="0px" y="0px"
	 viewBox="0 0 24 24" style="enable-background:new 0 0 24 24;" xml:space="preserve">
<style type="text/css">
	.st0{fill:#2E2E6D;}
</style>
<path class="st0" d="M12,0C5.4,0,0,5.4,0,12s5.4,12,12,12s12-5.4,12-12S18.6,0,12,0z M16.9,14.6C17,13.7,17,12.9,17,12
	s0-1.7-0.1-2.6C20.1,10,22,11.2,22,12S20.1,14,16.9,14.6z M12,22c-0.8,0-2-1.9-2.6-5.1C10.3,17,11.1,17,12,17s1.7,0,2.6-0.1
	C14,20.1,12.8,22,12,22z M12,15c-1,0-2-0.1-2.9-0.1C9.1,14,9,13,9,12s0.1-2,0.1-2.9C10,9.1,11,9,12,9s2,0.1,2.9,0.1
	C14.9,10,15,11,15,12s-0.1,2-0.1,2.9C14,14.9,13,15,12,15z M2,12c0-0.8,1.9-2,5.1-2.6C7,10.3,7,11.1,7,12s0,1.7,0.1,2.6
	C3.9,14,2,12.8,2,12z M12,2c0.8,0,2,1.9,2.6,5.1C13.7,7,12.9,7,12,7s-1.7,0-2.6,0.1C10,3.9,11.2,2,12,2z M21.5,8.8
	c-1.3-0.7-3-1.2-4.8-1.5c-0.3-1.9-0.8-3.5-1.5-4.8C18.1,3.5,20.5,5.9,21.5,8.8z M8.8,2.5c-0.7,1.3-1.2,3-1.5,4.8
	C5.5,7.7,3.8,8.2,2.5,8.8C3.5,5.9,5.9,3.5,8.8,2.5z M2.5,15.2c1.3,0.7,3,1.2,4.8,1.5c0.3,1.9,0.8,3.5,1.5,4.8
	C5.9,20.5,3.5,18.1,2.5,15.2z M15.2,21.5c0.7-1.3,1.2-3,1.5-4.8c1.9-0.3,3.5-0.8,4.8-1.5C20.5,18.1,18.1,20.5,15.2,21.5z"/>
</svg>
