<?xml version="1.0" encoding="utf-8"?>
<!-- Generator: Adobe Illustrator 26.0.3, SVG Export Plug-In . SVG Version: 6.00 Build 0)  -->
<svg version="1.1" id="Layer_1" xmlns="http://www.w3.org/2000/svg" xmlns:xlink="http://www.w3.org/1999/xlink" x="0px" y="0px"
	 viewBox="0 0 166 30" style="enable-background:new 0 0 166 30;" xml:space="preserve">
<style type="text/css">
	.st0{fill:#FFB600;}
	.st1{fill:#FF0D7C;}
	.st2{fill:#2E2E6D;}
</style>
<g>
	<path class="st0" d="M32.1,0h-8.6v30h8.6c8.3,0,15-6.7,15-15S40.4,0,32.1,0z"/>
	<path class="st1" d="M23.6,0H15v30h8.6c8.3,0,15-6.7,15-15S31.9,0,23.6,0z"/>
	<circle class="st2" cx="15" cy="15" r="15"/>
	<path class="st2" d="M159,12.9h-4.3c-1.2,0-2.1-1-2.1-2.1c0-1.2,1-2.1,2.1-2.1h6.4h4.3c0-2.4-1.9-4.3-4.3-4.3h-6.4
		c-3.4,0-6.2,2.6-6.4,6c-1.1-3.5-4.3-6-8.2-6c-2.6,0-4.9,1.1-6.4,2.9c-1.6-1.8-3.9-2.9-6.4-2.9c-3.8,0-7,2.5-8.1,5.9V8.6V4.3
		c-1.7,0-3.2,1-3.9,2.5c-1.9-1.5-4.2-2.5-6.8-2.5c-5.2,0-9.5,3.7-10.5,8.6c-1-4.9-5.3-8.6-10.5-8.6c-5.2,0-9.5,3.7-10.5,8.6
		c-1-4.9-5.3-8.6-10.5-8.6c-2.4,0-4.6,0.8-6.4,2.1V4.3C60,1.9,58.1,0,55.7,0v4.3V15v6.4v4.3c1.7,0,3.2-1,3.9-2.5
		c1.9,1.5,4.2,2.5,6.8,2.5c5.2,0,9.5-3.7,10.5-8.6c1,4.9,5.3,8.6,10.5,8.6h4.3c0-2.4-1.9-4.3-4.3-4.3c-2.8,0-5.2-1.8-6.1-4.3h12.1
		h2.3h2.1c0,0,0,0,0,0c1,4.9,5.3,8.6,10.5,8.6c2.6,0,5-0.9,6.8-2.5c0.7,1.5,2.2,2.5,3.9,2.5h3.9V12.9c0-2.4,1.9-4.3,4.3-4.3
		s4.3,1.9,4.3,4.3v8.6c0,2.4,1.9,4.3,4.3,4.3v-4.3v-8.6c0-2.4,1.9-4.3,4.3-4.3s4.3,1.9,4.3,4.3v8.6c0,2.4,1.9,4.3,4.3,4.3H159
		c3.6,0,6.4-2.9,6.4-6.4S162.6,12.9,159,12.9z M66.4,21.4c-3.6,0-6.4-2.9-6.4-6.4s2.9-6.4,6.4-6.4c3.6,0,6.4,2.9,6.4,6.4
		S70,21.4,66.4,21.4z M81.4,12.9c0.9-2.5,3.3-4.3,6.1-4.3c2.8,0,5.2,1.8,6.1,4.3H81.4z M108.4,21.4c-3.6,0-6.4-2.9-6.4-6.4
		s2.9-6.4,6.4-6.4c3.6,0,6.4,2.9,6.4,6.4S112,21.4,108.4,21.4z M159,21.4h-10.3V13c0.9,2.4,3.3,4.1,6,4.1h4.3c1.2,0,2.1,1,2.1,2.1
		C161.1,20.5,160.2,21.4,159,21.4z"/>
</g>
</svg>
