<?xml version="1.0" encoding="utf-8"?>
<!-- Generator: Adobe Illustrator 26.0.3, SVG Export Plug-In . SVG Version: 6.00 Build 0)  -->
<svg version="1.1" id="Layer_1" xmlns="http://www.w3.org/2000/svg" xmlns:xlink="http://www.w3.org/1999/xlink" x="0px" y="0px"
	 viewBox="0 0 140 100" style="enable-background:new 0 0 140 100;" xml:space="preserve">
<style type="text/css">
	.st0{fill-rule:evenodd;clip-rule:evenodd;fill:#426DB2;}
	.st1{fill-rule:evenodd;clip-rule:evenodd;fill:#FEFEFE;}
</style>
<g>
	<rect x="0" class="st0" width="140" height="100"/>
	<rect x="14" y="69.2" class="st1" width="3" height="14.5"/>
	<polygon class="st1" points="30.4,69.2 26.1,69.2 23,69.2 18.5,69.2 18.5,71.9 23,71.9 23,83.7 26.1,83.7 26.1,71.9 30.4,71.9 	"/>
	<path class="st1" d="M39.5,39.2l-11.1-2.7c-1.9-0.4-4.8-1.2-4.8-4.8c0-4.1,4.3-5.5,8-5.5c8.3,0,9,4.8,9.3,6.9h5.3v8.5
		C44.2,40.5,41.9,39.8,39.5,39.2L39.5,39.2z M33.5,66.4c2.4,0,8.3-0.4,12.6-3.6v2.4H55l0-10.7l3.7-3.8l8,14.5h10.6L65.2,44.5
		l11.9-13.1H66.2L55,44.2V19.6h-8.9v3.9c-2.7-2.9-7.1-5.1-13.9-5.1c-14.8,0-17.6,9-17.6,14c0,6.9,3.7,10.8,10.2,12.3l9.2,2.3
		c4.8,1.2,8.3,2.1,8.3,5.7c0,4.8-5,5.9-9.6,5.9c-8.3,0-9.7-4.8-9.7-7.4H14C14,56.8,16.9,66.4,33.5,66.4z"/>
</g>
</svg>
