<?xml version="1.0" encoding="utf-8"?>
<!-- Generator: Adobe Illustrator 26.0.3, SVG Export Plug-In . SVG Version: 6.00 Build 0)  -->
<svg version="1.1" id="Layer_1" xmlns="http://www.w3.org/2000/svg" xmlns:xlink="http://www.w3.org/1999/xlink" x="0px" y="0px"
	 viewBox="0 0 40 40" style="enable-background:new 0 0 40 40;" xml:space="preserve">
<style type="text/css">
	.st0{fill:#FFFFFF;}
</style>
<path class="st0" d="M28.5,10h-17c-0.8,0-1.5,0.6-1.5,1.4v17.1c0,0.8,0.7,1.4,1.5,1.4h17c0.8,0,1.5-0.6,1.5-1.4V11.4
	C30,10.6,29.3,10,28.5,10z M15.9,27h-3v-9.5h3V27z M14.4,16.2c-1,0-1.7-0.8-1.7-1.7c0-0.9,0.8-1.7,1.7-1.7c0.9,0,1.7,0.8,1.7,1.7
	C16.2,15.4,15.4,16.2,14.4,16.2z M27,27h-3v-4.6c0-1.1,0-2.5-1.5-2.5c-1.5,0-1.8,1.2-1.8,2.5V27h-3v-9.5h2.8v1.3h0
	c0.4-0.8,1.4-1.5,2.8-1.5c3,0,3.6,2,3.6,4.5V27z"/>
</svg>
