<?xml version="1.0" encoding="utf-8"?>
<!-- Generator: Adobe Illustrator 26.0.3, SVG Export Plug-In . SVG Version: 6.00 Build 0)  -->
<svg version="1.1" id="Layer_1" xmlns="http://www.w3.org/2000/svg" xmlns:xlink="http://www.w3.org/1999/xlink" x="0px" y="0px"
	 viewBox="0 0 40 40" style="enable-background:new 0 0 40 40;" xml:space="preserve">
<style type="text/css">
	.st0{fill:#FFFFFF;}
</style>
<path class="st0" d="M29.6,15.2c-0.2-0.9-0.9-1.5-1.8-1.8C26.3,13,20,13,20,13s-6.3,0-7.8,0.4c-0.8,0.2-1.5,0.9-1.8,1.8
	C10,16.8,10,20,10,20s0,3.3,0.4,4.8c0.2,0.9,0.9,1.5,1.8,1.8C13.8,27,20,27,20,27s6.3,0,7.8-0.4c0.9-0.2,1.5-0.9,1.8-1.8
	C30,23.3,30,20,30,20S30,16.8,29.6,15.2z M18,23v-6l5.2,3L18,23z"/>
</svg>
